<?xml version="1.0" encoding="UTF-8"?><svg xmlns="http://www.w3.org/2000/svg" width="1000" height="550" viewBox="0 0 1000 550"><defs><marker id="arrow" viewBox="0 0 10 10" refX="9" refY="5" markerWidth="7" markerHeight="7" orient="auto-start-reverse"><path d="M 0 0 L 10 5 L 0 10 z" fill="#475569"/></marker></defs><rect width="100%" height="100%" fill="white"/><text x="500" y="28" text-anchor="middle" font-family="Arial, sans-serif" font-size="18" font-weight="700" fill="#0f172a">Sơ đồ lớp miền nghiệp vụ</text><rect x="40" y="70" width="190" height="95" rx="10" fill="#f8fafc" stroke="#334155" stroke-width="1.8"/><text x="135" y="95.5" text-anchor="middle" font-family="Arial, sans-serif" font-size="14" font-weight="500" fill="#172033"><tspan x="135" dy="0">User</tspan><tspan x="135" dy="19">────────────</tspan><tspan x="135" dy="19">id, name, email</tspan><tspan x="135" dy="19">password, role, status</tspan></text><rect x="390" y="70" width="190" height="95" rx="10" fill="#f8fafc" stroke="#334155" stroke-width="1.8"/><text x="485" y="104.5" text-anchor="middle" font-family="Arial, sans-serif" font-size="14" font-weight="500" fill="#172033"><tspan x="485" dy="0">Category</tspan><tspan x="485" dy="19">────────────</tspan><tspan x="485" dy="19">id, name</tspan></text><rect x="700" y="70" width="190" height="95" rx="10" fill="#f8fafc" stroke="#334155" stroke-width="1.8"/><text x="795" y="95.5" text-anchor="middle" font-family="Arial, sans-serif" font-size="14" font-weight="500" fill="#172033"><tspan x="795" dy="0">Course</tspan><tspan x="795" dy="19">────────────</tspan><tspan x="795" dy="19">id, title, price, status</tspan><tspan x="795" dy="19">teacher, category</tspan></text><rect x="40" y="245" width="190" height="95" rx="10" fill="#f8fafc" stroke="#334155" stroke-width="1.8"/><text x="135" y="279.5" text-anchor="middle" font-family="Arial, sans-serif" font-size="14" font-weight="500" fill="#172033"><tspan x="135" dy="0">Enrollment</tspan><tspan x="135" dy="19">────────────</tspan><tspan x="135" dy="19">id, student, course</tspan></text><rect x="270" y="245" width="190" height="95" rx="10" fill="#f8fafc" stroke="#334155" stroke-width="1.8"/><text x="365" y="270.5" text-anchor="middle" font-family="Arial, sans-serif" font-size="14" font-weight="500" fill="#172033"><tspan x="365" dy="0">Order</tspan><tspan x="365" dy="19">────────────</tspan><tspan x="365" dy="19">orderCode, amount</tspan><tspan x="365" dy="19">method, status, timestamps</tspan></text><rect x="510" y="245" width="190" height="95" rx="10" fill="#f8fafc" stroke="#334155" stroke-width="1.8"/><text x="605" y="270.5" text-anchor="middle" font-family="Arial, sans-serif" font-size="14" font-weight="500" fill="#172033"><tspan x="605" dy="0">Chapter</tspan><tspan x="605" dy="19">────────────</tspan><tspan x="605" dy="19">id, title, orderIndex</tspan><tspan x="605" dy="19">course</tspan></text><rect x="750" y="245" width="190" height="95" rx="10" fill="#f8fafc" stroke="#334155" stroke-width="1.8"/><text x="845" y="270.5" text-anchor="middle" font-family="Arial, sans-serif" font-size="14" font-weight="500" fill="#172033"><tspan x="845" dy="0">Quiz</tspan><tspan x="845" dy="19">────────────</tspan><tspan x="845" dy="19">id, title, passScore</tspan><tspan x="845" dy="19">timeLimit, course</tspan></text><rect x="40" y="420" width="190" height="95" rx="10" fill="#f8fafc" stroke="#334155" stroke-width="1.8"/><text x="135" y="445.5" text-anchor="middle" font-family="Arial, sans-serif" font-size="14" font-weight="500" fill="#172033"><tspan x="135" dy="0">LessonProgress</tspan><tspan x="135" dy="19">────────────</tspan><tspan x="135" dy="19">student, lesson</tspan><tspan x="135" dy="19">isCompleted</tspan></text><rect x="360" y="420" width="190" height="95" rx="10" fill="#f8fafc" stroke="#334155" stroke-width="1.8"/><text x="455" y="445.5" text-anchor="middle" font-family="Arial, sans-serif" font-size="14" font-weight="500" fill="#172033"><tspan x="455" dy="0">Lesson</tspan><tspan x="455" dy="19">────────────</tspan><tspan x="455" dy="19">id, title, videoUrl</tspan><tspan x="455" dy="19">orderIndex, chapter</tspan></text><rect x="650" y="420" width="190" height="95" rx="10" fill="#f8fafc" stroke="#334155" stroke-width="1.8"/><text x="745" y="445.5" text-anchor="middle" font-family="Arial, sans-serif" font-size="14" font-weight="500" fill="#172033"><tspan x="745" dy="0">QuizResult</tspan><tspan x="745" dy="19">────────────</tspan><tspan x="745" dy="19">student, quiz, score</tspan><tspan x="745" dy="19">passed, timestamps</tspan></text><rect x="820" y="420" width="155" height="95" rx="10" fill="#f8fafc" stroke="#334155" stroke-width="1.8"/><text x="897.5" y="445.5" text-anchor="middle" font-family="Arial, sans-serif" font-size="14" font-weight="500" fill="#172033"><tspan x="897.5" dy="0">Question / Option</tspan><tspan x="897.5" dy="19">────────────</tspan><tspan x="897.5" dy="19">content, explanation</tspan><tspan x="897.5" dy="19">options, isCorrect</tspan></text><line x1="230" y1="115" x2="700" y2="115" stroke="#475569" stroke-width="1.6"  /><text x="465" y="105" text-anchor="middle" font-family="Arial, sans-serif" font-size="12" font-weight="400" fill="#172033"><tspan x="465" dy="0">1 teacher                N</tspan></text><line x1="580" y1="115" x2="700" y2="115" stroke="#475569" stroke-width="1.6"  /><text x="640" y="105" text-anchor="middle" font-family="Arial, sans-serif" font-size="12" font-weight="400" fill="#172033"><tspan x="640" dy="0">1 category       N</tspan></text><line x1="135" y1="165" x2="135" y2="245" stroke="#475569" stroke-width="1.6"  /><line x1="230" y1="292" x2="270" y2="292" stroke="#475569" stroke-width="1.6"  /><line x1="795" y1="165" x2="605" y2="245" stroke="#475569" stroke-width="1.6"  /><line x1="795" y1="165" x2="845" y2="245" stroke="#475569" stroke-width="1.6"  /><line x1="605" y1="340" x2="455" y2="420" stroke="#475569" stroke-width="1.6"  /><line x1="135" y1="340" x2="135" y2="420" stroke="#475569" stroke-width="1.6"  /><line x1="845" y1="340" x2="727" y2="420" stroke="#475569" stroke-width="1.6"  /><line x1="845" y1="340" x2="897" y2="420" stroke="#475569" stroke-width="1.6"  /></svg>