<?xml version="1.0" encoding="UTF-8"?><svg xmlns="http://www.w3.org/2000/svg" width="1000" height="540" viewBox="0 0 1000 540"><defs><marker id="arrow" viewBox="0 0 10 10" refX="9" refY="5" markerWidth="7" markerHeight="7" orient="auto-start-reverse"><path d="M 0 0 L 10 5 L 0 10 z" fill="#475569"/></marker></defs><rect width="100%" height="100%" fill="white"/><text x="500" y="28" text-anchor="middle" font-family="Arial, sans-serif" font-size="18" font-weight="700" fill="#0f172a">Sơ đồ trạng thái khóa học</text><rect x="40" y="210" width="120" height="55" rx="10" fill="#f8fbff" stroke="#2457c5" stroke-width="1.8"/><text x="100" y="242.5" text-anchor="middle" font-family="Arial, sans-serif" font-size="16" font-weight="700" fill="#172033"><tspan x="100" dy="0">draft</tspan></text><line x1="160" y1="237" x2="260" y2="237" stroke="#475569" stroke-width="1.6"  marker-end="url(#arrow)"/><rect x="260" y="210" width="130" height="55" rx="10" fill="#f8fbff" stroke="#2457c5" stroke-width="1.8"/><text x="325" y="242.5" text-anchor="middle" font-family="Arial, sans-serif" font-size="16" font-weight="700" fill="#172033"><tspan x="325" dy="0">pending</tspan></text><line x1="390" y1="237" x2="500" y2="155" stroke="#475569" stroke-width="1.6"  marker-end="url(#arrow)"/><rect x="500" y="125" width="150" height="55" rx="10" fill="#ecfdf5" stroke="#059669" stroke-width="1.8"/><text x="575" y="157.5" text-anchor="middle" font-family="Arial, sans-serif" font-size="16" font-weight="700" fill="#172033"><tspan x="575" dy="0">published</tspan></text><line x1="390" y1="237" x2="500" y2="320" stroke="#475569" stroke-width="1.6"  marker-end="url(#arrow)"/><rect x="500" y="290" width="150" height="55" rx="10" fill="#fff1f2" stroke="#e11d48" stroke-width="1.8"/><text x="575" y="322.5" text-anchor="middle" font-family="Arial, sans-serif" font-size="16" font-weight="700" fill="#172033"><tspan x="575" dy="0">rejected</tspan></text><line x1="575" y1="290" x2="130" y2="265" stroke="#475569" stroke-width="1.6"  marker-end="url(#arrow)"/><text x="355" y="292" text-anchor="middle" font-family="Arial, sans-serif" font-size="12" font-weight="400" fill="#172033"><tspan x="355" dy="0">Chỉnh sửa lại</tspan></text><line x1="650" y1="152" x2="760" y2="152" stroke="#475569" stroke-width="1.6"  marker-end="url(#arrow)"/><rect x="760" y="125" width="150" height="55" rx="10" fill="#fff7ed" stroke="#ea580c" stroke-width="1.8"/><text x="835" y="157.5" text-anchor="middle" font-family="Arial, sans-serif" font-size="16" font-weight="700" fill="#172033"><tspan x="835" dy="0">suspended</tspan></text><line x1="835" y1="180" x2="650" y2="180" stroke="#475569" stroke-width="1.6"  marker-end="url(#arrow)"/><text x="710" y="116" text-anchor="middle" font-family="Arial, sans-serif" font-size="12" font-weight="400" fill="#172033"><tspan x="710" dy="0">Tạm ngưng / khôi phục</tspan></text><rect x="430" y="440" width="150" height="55" rx="10" fill="#f1f5f9" stroke="#64748b" stroke-width="1.8"/><text x="505" y="472.5" text-anchor="middle" font-family="Arial, sans-serif" font-size="16" font-weight="700" fill="#172033"><tspan x="505" dy="0">archived</tspan></text><line x1="100" y1="265" x2="430" y2="467" stroke="#475569" stroke-width="1.6"  marker-end="url(#arrow)"/><line x1="325" y1="265" x2="460" y2="440" stroke="#475569" stroke-width="1.6"  marker-end="url(#arrow)"/><line x1="575" y1="180" x2="525" y2="440" stroke="#475569" stroke-width="1.6"  marker-end="url(#arrow)"/><line x1="575" y1="345" x2="545" y2="440" stroke="#475569" stroke-width="1.6"  marker-end="url(#arrow)"/></svg>